<svg xmlns="http://www.w3.org/2000/svg" viewBox="0 0 374.95 108.04"><defs><style>.cls-1{fill:#5e6488;}.cls-2{fill:#fbdc00;}</style></defs><title>Fichier 1310</title><g id="Calque_2" data-name="Calque 2"><g id="Calque_1-2" data-name="Calque 1"><path class="cls-1" d="M144.68,21.66A34.52,34.52,0,0,0,132,8.51a33.94,33.94,0,0,0-4-2c-.63-.22-1.63-.52-2.26-.71s-1.29-.35-1.94-.5-1.29-.27-1.94-.36-1.3-.17-1.95-.21-1.41-.09-2.11-.09-1.16,0-1.74.06-1.25.09-1.87.18l-.92.14-.91.18a25.6,25.6,0,0,0-6.59,2.36,25.16,25.16,0,0,0-5.29,3.65,26,26,0,0,0-3.88,4.34c-.27.37-.52.75-.76,1.13s-.47.76-.69,1.13-.41.76-.61,1.14-.38.75-.56,1.12-.32.75-.48,1.12-.3.74-.45,1.1c-.26.74-.5,1.46-.72,2.17a45,45,0,0,0-1.57,8,61.89,61.89,0,0,0-.36,7.24c0,2.37,0,4.5,0,4.5V108h8.29V76.27H113a37.77,37.77,0,0,0,18.44-4.58A33.46,33.46,0,0,0,144.6,58.8a36.57,36.57,0,0,0,4.76-18.53A37.52,37.52,0,0,0,144.68,21.66ZM140,47a25.52,25.52,0,0,1-3.85,7.5,21.46,21.46,0,0,1-14,8.7,18.76,18.76,0,0,1-2.7.2,17.9,17.9,0,0,1-5.7-.92A18.91,18.91,0,0,1,106.47,58a21.76,21.76,0,0,1-4.86-7.44,25.53,25.53,0,0,1-1.7-8.89,27.32,27.32,0,0,1,1.55-9A25.61,25.61,0,0,1,106,24.87a23,23,0,0,1,6.9-5.53,19.91,19.91,0,0,1,8.24-2.21l.85,0a18.35,18.35,0,0,1,13.79,6.34,20.32,20.32,0,0,1,2.41,3.33,23.86,23.86,0,0,1,3.15,11.95A25.2,25.2,0,0,1,140,47Z"/><path class="cls-2" d="M284.13,22a14.92,14.92,0,0,1,11.22,5.16,16.4,16.4,0,0,1,2,2.71,19.15,19.15,0,0,1,1.41,3.05,19.56,19.56,0,0,1,1.16,6.68,21.47,21.47,0,0,1-4.19,12.87,17.45,17.45,0,0,1-11.36,7.08,16.16,16.16,0,0,1-2.2.16,14.49,14.49,0,0,1-4.64-.75,15.47,15.47,0,0,1-6-3.7,18,18,0,0,1-4-6.06,21.1,21.1,0,0,1-1.38-7.23,22.31,22.31,0,0,1,1.27-7.29,20.68,20.68,0,0,1,3.67-6.36,18.83,18.83,0,0,1,5.62-4.5,16.08,16.08,0,0,1,6.71-1.8l.69,0M271.67,80.22a37.05,37.05,0,0,0,11.81-2c.72-.23,1.4-.5,2.11-.77s1.36-.6,2.05-.91,1.34-.67,2-1,1.29-.75,1.93-1.14,1.26-.82,1.88-1.24,1.21-.9,1.8-1.36a39.74,39.74,0,0,0,11.13-14.12A41.57,41.57,0,0,0,306,21.57,39.85,39.85,0,0,0,293.35,6.75a36.59,36.59,0,0,0-4.24-2.58c-.73-.38-1.48-.73-2.22-1.08s-1.54-.63-2.3-.92-1.56-.53-2.34-.77S280.66,1,279.87.81s-1.59-.33-2.4-.44-1.6-.21-2.4-.26S273.33,0,272.46,0c-.71,0-1.43,0-2.13.07S268.78.18,268,.3l-1.14.16-1.11.22a32,32,0,0,0-8.13,2.85,31.89,31.89,0,0,0-11.3,9.68c-.34.45-.64.92-.94,1.37s-.57.92-.85,1.37-.51.92-.75,1.38-.47.91-.69,1.36-.4.91-.6,1.36-.37.89-.54,1.33c-.33.89-.63,1.77-.89,2.63a53,53,0,0,0-1.93,9.69,75.69,75.69,0,0,0-.46,8.78,62.53,62.53,0,0,0,.63,8.8A40.06,40.06,0,0,0,241.94,61c.36.85.77,1.71,1.22,2.59.23.44.48.87.73,1.3s.53.88.81,1.32c.58.86,1.21,1.72,1.91,2.58.36.42.72.85,1.11,1.26s.77.84,1.2,1.24.85.8,1.31,1.18.92.79,1.41,1.15l.75.55.77.53.79.52.82.49a33.14,33.14,0,0,0,7.29,3.14,34.86,34.86,0,0,0,8.34,1.34c.42,0,.85,0,1.27,0"/><path class="cls-1" d="M355.76,12.5c5.21-3.05,12-4.12,17.5-4.39A1.62,1.62,0,0,1,375,9.82l-.15,2.68a2.3,2.3,0,0,1-2.23,2.16c-4.62.13-9.23.75-13.11,2.79a27.29,27.29,0,0,0-10.59,9.78A25.29,25.29,0,0,0,345,40.9V78.38h-8.51v-67a3.79,3.79,0,0,1,3.79-3.79h0a3.79,3.79,0,0,1,3.79,3.62l.49,11.36a.46.46,0,0,0,.87.18C347.76,18.15,350.56,15.53,355.76,12.5Z"/><path class="cls-1" d="M179.32,77.47A24.73,24.73,0,0,1,172,73.31c-1.61-1.34-3.35-2.59-1.95-4.62a12.7,12.7,0,0,1,2.16-2.93c1.26-.93,2.32.43,3.23,1.16a26,26,0,0,0,3.49,2.39,26.39,26.39,0,0,0,17.29,3.33c5.14-.83,10.32-3.53,11.75-8.89a12.46,12.46,0,0,0-5.42-14.22c-4.53-2.94-10.29-3.91-15.27-5.85-4.63-1.81-9.83-4.41-12.63-8.71a14.78,14.78,0,0,1-1.24-13.16A25.24,25.24,0,0,1,183.83,9.14,23.44,23.44,0,0,1,191,6.4a24.81,24.81,0,0,1,8.38-.13,25.07,25.07,0,0,1,13.33,6c.94.78,1.76,1.46,1.16,2.72a14.09,14.09,0,0,1-.94,1.47c-.6,1-1.27,2.63-2.66,2.36-1.09-.22-2.14-1.7-3.07-2.34a16.57,16.57,0,0,0-3.88-1.94,26,26,0,0,0-9.22-1.71c-5.12.12-11.46,2.67-13.22,7.9a11.63,11.63,0,0,0,.45,8.41c1.09,2.3,3.09,3.71,5.24,4.92,5.14,2.9,10.83,4.36,16.22,6.66,4.73,2,10.15,4.61,12.51,9.46s2.06,11.12.29,16.07c-4,11.32-16.32,14.53-27.2,13.34A38.58,38.58,0,0,1,179.32,77.47Z"/><path class="cls-1" d="M37.83,80.17C18.24,80.06,2.19,66.24.28,47.85-2,26.08,9.73,8,28.91,3.67,42.87.52,59.69,9,65.47,22.14c2.79,6.34.09,12-7.27,14.91C44.42,42.49,30.7,48.12,16.76,53.14c-5,1.79-4.6,3.47-2,7C24,72.78,42.16,75.94,56,66.94c2.95-1.92,4.71-2.6,6.91,1,2.38,3.86-.5,4.77-2.75,6.12C53.32,78.12,46,80.57,37.83,80.17Zm-2-65.65A26.5,26.5,0,0,0,9.31,42.28c.15,3.4,1.11,5.42,4.95,3.93,12.51-4.9,25.05-9.74,37.51-14.77,4.51-1.82,5.19-5.16,2-8.85C49.07,17.13,43.19,14.12,35.82,14.52Z"/></g></g></svg>